#!OML:ASF H:\Punching\Project 1\Capture day 1\Session 1\female.ASF
:FULLY-SPECIFIED
:DEGREES
3389
root 1.62034 15.2361 1.67031 14.8177 6.47075 1.35931
lowerback -0.0587699 -4.07436 2.02049
upperback -7.03185 -5.32226 1.31191
thorax -7.36316 -2.71679 0.589417
lowerneck -16.7601 -12.3227 -5.79639
upperneck 20.5449 -17.2435 6.22095
head 10.3817 -7.73258 0.595889
rclavicle -2.68049e-014 -1.39149e-014
rhumerus -39.0165 2.65832 -70.1574
rradius 40.8551
rwrist -1.62926
rhand -13.4589 -6.29239
rfingers 7.12502
rthumb 12.6508 -35.8893
lclavicle -2.68049e-014 -1.39149e-014
lhumerus -49.6143 4.97744 78.4549
lradius 51.2326
lwrist -12.5558
lhand -6.19964 12.7138
lfingers 7.12502
lthumb 19.6404 41.7417
rfemur -44.8342 -0.651512 19.8557
rtibia 42.6961
rfoot -10.4333 -15.9063
rtoes 7.52688
lfemur -21.1476 1.88425 -11.3177
ltibia 59.9842
lfoot -184.236 197.594
ltoes 3.39409
3390
root 1.61028 15.2322 1.6655 14.6978 6.21577 1.29455
lowerback -0.01655 -3.99813 2.08531
upperback -7.01441 -5.21891 1.26913
thorax -7.37782 -2.67085 0.505109
lowerneck -16.7641 -12.2943 -5.77866
upperneck 20.6298 -17.2062 6.17629
head 10.4044 -7.71663 0.582225
rclavicle -1.4269e-014 1.66979e-014
rhumerus -38.534 3.18321 -70.518
rradius 42.1053
rwrist -2.70466
rhand -14.1013 -6.22998
rfingers 7.12502
rthumb 12.0315 -35.8641
lclavicle -1.4269e-014 1.66979e-014
lhumerus -49.1056 4.60198 79.0937
lradius 52.364
lwrist -12.3291
lhand -6.59662 12.7331
lfingers 7.12502
lthumb 19.2587 41.7995
rfemur -44.7616 -0.496843 19.9692
rtibia 42.6617
rfoot -10.3795 -15.8548
rtoes 7.46592
lfemur -21.9504 2.25494 -11.8612
ltibia 61.2299
lfoot -184.815 196.525
ltoes 1.75256
3391
root 1.60143 15.2275 1.66015 14.5846 5.95443 1.22316
lowerback 0.0136484 -3.92443 2.15657
upperback -7.0042 -5.11869 1.22999
thorax -7.39331 -2.62684 0.420541
lowerneck -16.772 -12.261 -5.75636
upperneck 20.7283 -17.1627 6.12385
head 10.4313 -7.69784 0.565739
rclavicle -1.62755e-014 -9.14409e-015
rhumerus -38.0798 3.71502 -70.8767
rradius 43.3855
rwrist -3.77902
rhand -14.6963 -6.11254
rfingers 7.12502
rthumb 11.4577 -35.7794
lclavicle -1.62755e-014 -9.14409e-015
lhumerus -48.6358 4.17469 79.7371
lradius 53.5225
lwrist -12.0974
lhand -6.95854 12.7719
lfingers 7.12502
lthumb 18.9107 41.8726
rfemur -44.7067 -0.350495 20.0903
rtibia 42.6391
rfoot -10.3288 -15.7896
rtoes 7.39497
lfemur -22.738 2.60996 -12.4208
ltibia 62.4186
lfoot -185.407 195.495
ltoes 0.184927
3392
root 1.59358 15.222 1.65379 14.4837 5.69671 1.14967
lowerback 0.02766 -3.85632 2.23211
upperback -7.00005 -5.02603 1.19338
thorax -7.4059 -2.58687 0.335707
lowerneck -16.7795 -12.2236 -5.73132
upperneck 20.828 -17.1142 6.07121
head 10.4579 -7.6766 0.549617
rclavicle 2.14097e-014 1.03368e-014
rhumerus -37.6478 4.24518 -71.2332
rradius 44.6889
rwrist -4.8195
rhand -15.2189 -5.98541
rfingers 7.12502
rthumb 10.9536 -35.6797
lclavicle 2.14097e-014 1.03368e-014
lhumerus -48.1998 3.70611 80.3749
lradius 54.6945
lwrist -11.8749
lhand -7.30349 12.782
lfingers 7.12502
lthumb 18.5789 41.9148
rfemur -44.6772 -0.215515 20.2138
rtibia 42.6314
rfoot -10.2793 -15.7158
rtoes 7.31088
lfemur -23.5188 2.93017 -12.9927
ltibia 63.549
lfoot -185.988 194.5
ltoes -1.31591
3393
root 1.58655 15.2156 1.6462 14.395 5.44623 1.07849
lowerback 0.0283116 -3.79482 2.30648
upperback -7.00034 -4.94255 1.15804
thorax -7.41519 -2.55143 0.252575
lowerneck -16.792 -12.1829 -5.70112
upperneck 20.9276 -17.062 6.01851
head 10.4849 -7.65319 0.53303
rclavicle 9.84916e-015 -5.1684e-015
rhumerus -37.238 4.76425 -71.5813
rradius 46.0171
rwrist -5.77647
rhand -15.6418 -5.88425
rfingers 7.12502
rthumb 10.5457 -35.5997
lclavicle 9.84916e-015 -5.1684e-015
lhumerus -47.7921 3.19458 81.0052
lradius 55.8675
lwrist -11.6609
lhand -7.649 12.7531
lfingers 7.12502
lthumb 18.2465 41.9173
rfemur -44.6743 -0.0884917 20.3326
rtibia 42.6422
rfoot -10.2349 -15.6391
rtoes 7.22011
lfemur -24.2873 3.20195 -13.5728
ltibia 64.616
lfoot -186.546 193.531
ltoes -2.76303
3394
root 1.58042 15.2082 1.63729 14.3157 5.21046 1.00864
lowerback 0.0196759 -3.74234 2.38331
upperback -7.00434 -4.87126 1.12406
thorax -7.42318 -2.5222 0.1698
lowerneck -16.8174 -12.1398 -5.66333
upperneck 21.0337 -17.0075 5.96154
head 10.5153 -7.62803 0.51335
rclavicle -5.34544e-014 -3.18055e-015
rhumerus -36.8574 5.28301 -71.9263
rradius 47.3697
rwrist -6.66559
rhand -15.985 -5.77624
rfingers 7.12502
rthumb 10.2147 -35.5082
lclavicle -5.34544e-014 -3.18055e-015
lhumerus -47.4144 2.64706 81.6248
lradius 57.0472
lwrist -11.4434
lhand -7.97564 12.6992
lfingers 7.12502
lthumb 17.9323 41.8924
rfemur -44.6943 0.0261299 20.447
rtibia 42.6721
rfoot -10.1988 -15.5583
rtoes 7.12784
lfemur -25.0356 3.40751 -14.1498
ltibia 65.6144
lfoot -187.07 192.573
ltoes -4.19564
3395
root 1.57533 15.1998 1.62732 14.2361 4.98081 0.941911
lowerback 0.00442458 -3.69713 2.45926
upperback -7.00555 -4.8101 1.08939
thorax -7.42428 -2.49798 0.0868076
lowerneck -16.8599 -12.0942 -5.61588
upperneck 21.1485 -16.9509 5.9001
head 10.5507 -7.60082 0.489866
rclavicle 3.93796e-014 3.57812e-015
rhumerus -36.4956 5.79675 -72.2687
rradius 48.7449
rwrist -7.4735
rhand -16.2418 -5.70982
rfingers 7.12502
rthumb 9.96689 -35.4539
lclavicle 3.93796e-014 3.57812e-015
lhumerus -47.0698 2.06255 82.2334
lradius 58.2498
lwrist -11.2039
lhand -8.26559 12.6665
lfingers 7.12502
lthumb 17.6533 41.8851
rfemur -44.7254 0.134939 20.5534
rtibia 42.72
rfoot -10.1732 -15.4745
rtoes 7.02541
lfemur -25.7387 3.54335 -14.7185
ltibia 66.5347
lfoot -187.557 191.61
ltoes -5.669
3396
root 1.57139 15.1904 1.61651 14.1498 4.75759 0.877713
lowerback -0.0100022 -3.66017 2.53283
upperback -7.00793 -4.76001 1.05649
thorax -7.42686 -2.47904 0.0078466
lowerneck -16.895 -12.0444 -5.56566
upperneck 21.2612 -16.8888 5.837
head 10.5833 -7.5715 0.466845
rclavicle 7.94052e-015 2.38542e-015
rhumerus -36.1651 6.32268 -72.6111
rradius 50.1336
rwrist -8.22272
rhand -16.4336 -5.64363
rfingers 7.12502
rthumb 9.7818 -35.3964
lclavicle 7.94052e-015 2.38542e-015
lhumerus -46.7728 1.45324 82.8281
lradius 59.4811
lwrist -10.9518
lhand -8.52419 12.6275
lfingers 7.12502
lthumb 17.4044 41.8683
rfemur -44.7579 0.238 20.6524
rtibia 42.7799
rfoot -10.1512 -15.3922
rtoes 6.87729
lfemur -26.3826 3.60105 -15.2692
ltibia 67.371
lfoot -187.998 190.628
ltoes -7.16818
3397
root 1.56863 15.1802 1.60516 14.0458 4.53742 0.807402
lowerback -0.0142775 -3.63004 2.60858
upperback -7.0081 -4.71849 1.02792
thorax -7.43284 -2.46429 -0.0665867
lowerneck -16.9314 -11.9898 -5.50661
upperneck 21.3811 -16.8206 5.76449
head 10.6168 -7.53961 0.440135
rclavicle -3.72415e-014 -2.78299e-015
rhumerus -35.8646 6.8604 -72.9535
rradius 51.5272
rwrist -8.9097
rhand -16.5831 -5.5271
rfingers 7.12502
rthumb 9.63757 -35.2866
lclavicle -3.72415e-014 -2.78299e-015
lhumerus -46.5303 0.821383 83.4102
lradius 60.7694
lwrist -10.6711
lhand -8.72074 12.6357
lfingers 7.12502
lthumb 17.2152 41.8932
rfemur -44.7736 0.339392 20.7529
rtibia 42.845
rfoot -10.1401 -15.3057
rtoes 6.72102
lfemur -26.9465 3.58402 -15.7839
ltibia 68.1186
lfoot -188.392 189.618
ltoes -8.69946
3398
root 1.56704 15.1693 1.59337 13.9264 4.32267 0.727661
lowerback -0.013318 -3.60803 2.68786
upperback -7.0067 -4.68713 1.00707
thorax -7.43997 -2.45449 -0.133939
lowerneck -16.9653 -11.9294 -5.44403
upperneck 21.5094 -16.7442 5.68412
head 10.6513 -7.50453 0.411541
rclavicle 3.94619e-015 3.18055e-015
rhumerus -35.5908 7.41749 -73.2972
rradius 52.9183
rwrist -9.5404
rhand -16.6938 -5.38769
rfingers 7.12502
rthumb 9.53078 -35.1521
lclavicle 3.94619e-015 3.18055e-015
lhumerus -46.3423 0.183497 83.9712
lradius 62.0966
lwrist -10.4103
lhand -8.87101 12.6014
lfingers 7.12502
lthumb 17.0706 41.8714
rfemur -44.7722 0.436 20.8603
rtibia 42.9059
rfoot -10.1259 -15.2177
rtoes 6.50444
lfemur -27.4318 3.49467 -16.2531
ltibia 68.7788
lfoot -188.748 188.592
ltoes -10.2623
3399
root 1.56646 15.158 1.5812 13.7917 4.11523 0.629248
lowerback -0.0078951 -3.59443 2.77433
upperback -7.00613 -4.66578 0.999929
thorax -7.45028 -2.4496 -0.189924
lowerneck -16.9902 -11.8614 -5.38043
upperneck 21.6463 -16.6557 5.59357
head 10.6857 -7.46522 0.381626
rclavicle -9.49771e-014 -1.55052e-014
rhumerus -35.3511 7.99745 -73.6377
rradius 54.3061
rwrist -10.1051
rhand -16.7591 -5.23203
rfingers 7.12502
rthumb 9.46774 -34.9994
lclavicle -9.49771e-014 -1.55052e-014
lhumerus -46.2133 -0.460963 84.5198
lradius 63.4774
lwrist -10.1548
lhand -8.97159 12.5761
lfingers 7.12502
lthumb 16.9738 41.8544
rfemur -44.7494 0.529122 20.9854
rtibia 42.9557
rfoot -10.1141 -15.1286
rtoes 6.25445
lfemur -27.838 3.34101 -16.662
ltibia 69.3564
lfoot -189.082 187.571
ltoes -11.801
3400
root 1.56682 15.1463 1.56882 13.6425 3.91736 0.50493
lowerback -0.00829501 -3.58528 2.87693
upperback -6.99588 -4.64937 1.00387
thorax -7.44736 -2.44761 -0.243815
lowerneck -17.0251 -11.7912 -5.30614
upperneck 21.7902 -16.5647 5.49353
head 10.7227 -7.42453 0.346567
rclavicle 1.84528e-014 -3.37934e-015
rhumerus -35.1262 8.57299 -73.9739
rradius 55.6787
rwrist -10.5967
rhand -16.7979 -5.09477
rfingers 7.12502
rthumb 9.43035 -34.8638
lclavicle 1.84528e-014 -3.37934e-015
lhumerus -46.1147 -1.11841 85.0544
lradius 64.8974
lwrist -9.91119
lhand -9.05281 12.5329
lfingers 7.12502
lthumb 16.8956 41.818
rfemur -44.7015 0.616474 21.1375
rtibia 42.9883
rfoot -10.1051 -15.0367
rtoes 5.97675
lfemur -28.1686 3.13455 -17.0011
ltibia 69.8586
lfoot -189.429 186.588
ltoes -13.3115
3401
root 1.56787 15.1344 1.55602 13.4822 3.73504 0.352784
lowerback -0.017439 -3.58347 2.99447
upperback -6.97803 -4.64179 1.02177
thorax -7.43154 -2.45028 -0.291772
lowerneck -17.0576 -11.7169 -5.22575
upperneck 21.9341 -16.4684 5.3889
head 10.7581 -7.38162 0.310052
rclavicle -1.20901e-014 6.95746e-015
rhumerus -34.9186 9.14607 -74.306
rradius 57.0292
rwrist -11.0049
rhand -16.8141 -4.97225
rfingers 7.12502
rthumb 9.41474 -34.742
lclavicle -1.20901e-014 6.95746e-015
lhumerus -46.0407 -1.78293 85.5739
lradius 66.332
lwrist -9.70652
lhand -9.14119 12.4399
lfingers 7.12502
lthumb 16.8105 41.7322
rfemur -44.6313 0.697003 21.3187
rtibia 43.0032
rfoot -10.1008 -14.9474
rtoes 5.68268
lfemur -28.4309 2.88382 -17.2666
ltibia 70.2938
lfoot -189.807 185.68
ltoes -14.7203
